<svg width="18" height="18" viewBox="0 0 18 18" fill="none" xmlns="http://www.w3.org/2000/svg">
<path d="M14.2031 8.81339C14.2031 8.45974 13.9201 8.17325 13.5712 8.17325H9.7042V4.31197V4.31185C9.7042 3.95701 9.41629 3.66922 9.06169 3.66922C8.70685 3.66922 8.41894 3.95701 8.41894 4.31185V8.81089C8.41894 9.16584 8.70685 9.45364 9.06169 9.45364H13.5716C13.9201 9.45364 14.2031 9.16703 14.2031 8.81339ZM16.1329 8.80934C16.1329 12.7147 12.9675 15.8806 9.063 15.8806C5.15825 15.8806 1.99307 12.7147 1.99307 8.80934C1.99307 4.904 5.15825 1.7381 9.063 1.7381C12.9675 1.7381 16.1329 4.904 16.1329 8.80934ZM17.4167 8.80934C17.4167 4.19563 13.6766 0.455566 9.063 0.455566C4.44917 0.455566 0.709106 4.19563 0.709106 8.80934C0.709106 13.423 4.44917 17.1631 9.063 17.1631C13.6766 17.1631 17.4167 13.423 17.4167 8.80934Z" fill="#6E798C"/>
</svg>
