<svg width="18" height="17" viewBox="0 0 18 17" fill="none" xmlns="http://www.w3.org/2000/svg">
<g clip-path="url(#clip0)">
<path d="M12.0299 7.273C12.0299 6.90891 11.7347 6.61377 11.3706 6.61377H4.5805C4.2164 6.61377 3.92126 6.90891 3.92126 7.273C3.92126 7.6371 4.2164 7.93224 4.5805 7.93224H11.3706C11.7347 7.93224 12.0299 7.6371 12.0299 7.273Z" fill="#6E798C"/>
<path d="M4.5805 9.25049C4.2164 9.25049 3.92126 9.54563 3.92126 9.90972C3.92126 10.2738 4.2164 10.569 4.5805 10.569H8.70436C9.06846 10.569 9.36359 10.2738 9.36359 9.90972C9.36359 9.54563 9.06846 9.25049 8.70436 9.25049H4.5805Z" fill="#6E798C"/>
<path d="M6.13004 15.5792H3.92527C3.19826 15.5792 2.6068 14.9877 2.6068 14.2607V2.65818C2.6068 1.93117 3.19826 1.33971 3.92527 1.33971H12.0302C12.7572 1.33971 13.3487 1.93117 13.3487 2.65818V6.71247C13.3487 7.07656 13.6438 7.3717 14.0079 7.3717C14.372 7.3717 14.6671 7.07656 14.6671 6.71247V2.65818C14.6671 1.20417 13.4842 0.0212402 12.0302 0.0212402H3.92527C2.47126 0.0212402 1.28833 1.20417 1.28833 2.65818V14.2607C1.28833 15.7147 2.47126 16.8976 3.92527 16.8976H6.13004C6.49414 16.8976 6.78928 16.6025 6.78928 16.2384C6.78928 15.8743 6.49414 15.5792 6.13004 15.5792Z" fill="#6E798C"/>
<path d="M15.8345 9.56644C15.0634 8.79534 13.8087 8.79531 13.0381 9.56592L9.41884 13.1772C9.34197 13.2539 9.28528 13.3484 9.2537 13.4523L8.46549 16.0472C8.39561 16.2772 8.45649 16.5271 8.6244 16.6991C8.75018 16.8281 8.92105 16.898 9.09631 16.898C9.15495 16.898 9.21415 16.8902 9.27226 16.8741L11.9331 16.137C12.0426 16.1067 12.1424 16.0486 12.2228 15.9683L15.8345 12.3634C16.6056 11.5923 16.6056 10.3376 15.8345 9.56644ZM11.4141 14.9127L10.0754 15.2835L10.4672 13.9938L12.9093 11.5571L13.8418 12.4896L11.4141 14.9127ZM14.9027 11.4307L14.775 11.5582L13.8427 10.6258L13.97 10.4988C14.227 10.2418 14.6452 10.2418 14.9023 10.4988C15.1593 10.7558 15.1593 11.1741 14.9027 11.4307Z" fill="#6E798C"/>
<path d="M11.3706 3.97705H4.5805C4.2164 3.97705 3.92126 4.27219 3.92126 4.63628C3.92126 5.00038 4.2164 5.29552 4.5805 5.29552H11.3706C11.7347 5.29552 12.0299 5.00038 12.0299 4.63628C12.0299 4.27219 11.7347 3.97705 11.3706 3.97705Z" fill="#6E798C"/>
</g>
<defs>
<clipPath id="clip0">
<rect width="16.8764" height="16.8764" fill="white" transform="translate(0.412354 0.0212402)"/>
</clipPath>
</defs>
</svg>
