<svg width="18" height="18" viewBox="0 0 18 18" fill="none" xmlns="http://www.w3.org/2000/svg">
<g clip-path="url(#clip0)">
<path d="M9.11941 10.3058C11.6135 10.3058 13.6364 8.28283 13.6364 5.7888C13.6364 3.29477 11.6134 1.28564 9.11941 1.28564C6.62538 1.28564 4.60242 3.30861 4.60242 5.7888C4.60242 8.269 6.62535 10.3058 9.11941 10.3058ZM9.11941 2.46339C10.9484 2.46339 12.4448 3.95981 12.4448 5.7888C12.4448 7.61779 10.9484 9.11418 9.11941 9.11418C7.29046 9.11418 5.79401 7.61776 5.79401 5.78877C5.79401 3.95978 7.29043 2.46339 9.11941 2.46339Z" fill="#6E798C"/>
<path d="M1.3049 17.3581H16.9897C17.3222 17.3581 17.5855 17.0948 17.5855 16.7623C17.5855 13.6447 15.0499 11.0952 11.9185 11.0952H6.37614C3.25858 11.0952 0.709106 13.6308 0.709106 16.7623C0.709106 17.0948 0.972363 17.3581 1.3049 17.3581ZM6.37614 12.2868H11.9185C14.1908 12.2868 16.0613 13.9772 16.3523 16.1664H1.94227C2.23323 13.9911 4.10379 12.2868 6.37614 12.2868Z" fill="#6E798C"/>
</g>
<defs>
<clipPath id="clip0">
<rect width="16.8764" height="16.8764" fill="white" transform="translate(0.709106 0.883545)"/>
</clipPath>
</defs>
</svg>
