<svg width="44" height="44" viewBox="0 0 44 44" fill="none" xmlns="http://www.w3.org/2000/svg">
<g clip-path="url(#clip0)">
<path d="M32.4498 32.6864C35.3604 29.8386 37.0205 25.9512 37.0648 21.8794C37.1092 17.8076 35.5343 13.8849 32.6864 10.9743C29.8386 8.06376 25.9512 6.40369 21.8794 6.35931C17.8076 6.31493 13.885 7.88989 10.9744 10.7377C8.06382 13.5855 6.40375 17.4729 6.35937 21.5447C6.31499 25.6165 7.88995 29.5392 10.7378 32.4497C13.5856 35.3603 17.473 37.0204 21.5448 37.0648C25.6166 37.1091 29.5392 35.5342 32.4498 32.6864ZM28.3705 20.8251C28.4979 20.8243 28.6242 20.8488 28.7421 20.8973C28.8599 20.9458 28.9669 21.0173 29.0568 21.1076C29.1467 21.1979 29.2177 21.3052 29.2657 21.4233C29.3137 21.5413 29.3377 21.6677 29.3363 21.7951C29.3349 21.9225 29.3081 22.0484 29.2576 22.1654C29.207 22.2823 29.1337 22.3881 29.0418 22.4764C28.95 22.5647 28.8415 22.6338 28.7226 22.6798C28.6038 22.7257 28.477 22.7475 28.3496 22.7439L17.233 22.6227L20.9483 26.4199C21.1263 26.6018 21.2247 26.8469 21.2219 27.1014C21.2192 27.3559 21.1154 27.5989 20.9335 27.7769C20.7516 27.9548 20.5064 28.0533 20.2519 28.0505C19.9974 28.0477 19.7545 27.944 19.5765 27.7621L14.2412 22.3092C14.0632 22.1273 13.9648 21.8821 13.9675 21.6276C13.9703 21.3731 14.0741 21.1302 14.256 20.9522L19.7089 15.6169C19.8908 15.4389 20.1359 15.3405 20.3904 15.3433C20.6449 15.346 20.8879 15.4498 21.0659 15.6317C21.2438 15.8136 21.3423 16.0588 21.3395 16.3133C21.3367 16.5677 21.233 16.8107 21.0511 16.9887L17.2539 20.7039L28.3705 20.8251Z" fill="#A5ADBB"/>
</g>
<defs>
<clipPath id="clip0">
<rect width="30.7073" height="30.7073" fill="white" transform="translate(21.9487) rotate(45.6244)"/>
</clipPath>
</defs>
</svg>
