<?xml version="1.0" ?><svg height="100" viewBox="0 0 512 512" width="100" xmlns="http://www.w3.org/2000/svg"><defs><style>
      .cls-1 {
        fill: #fbae17;
      }

      .cls-2 {
        fill: none;
      }

      .cls-2, .cls-3 {
        stroke: #000;
        stroke-linecap: round;
        stroke-linejoin: round;
        stroke-width: 3px;
      }

      .cls-3 {
        fill: #fff;
      }
    </style></defs><title/><g data-name="Set v 2" id="Set_v_2"><circle class="cls-1" cx="256" cy="257.43" r="190.73"/><circle class="cls-2" cx="256" cy="257.43" r="190.73"/><g><path class="cls-2" d="M233.66,425.24q-5.74-.75-11.37-1.9"/><path class="cls-2" d="M311,417.57a169,169,0,0,1-55,9.13q-5.15,0-10.21-.3"/><path class="cls-2" d="M330.17,409.63q-4.2,2.06-8.53,3.87"/><path class="cls-2" d="M297.43,93.27c2.88.73,5.73,1.52,8.54,2.39"/><path class="cls-2" d="M258.49,88.18a169.87,169.87,0,0,1,27.63,2.66"/><path class="cls-2" d="M198.47,98.19a168.68,168.68,0,0,1,47-9.7"/><path class="cls-2" d="M171.68,110.63a169.13,169.13,0,0,1,19.18-9.48"/><path class="cls-2" d="M152.92,123.16q4.35-3.34,8.92-6.41"/></g><g><path class="cls-3" d="M408.87,141.41a84.49,84.49,0,0,0-76.31,48.29,84.41,84.41,0,0,0-152.86.6,84.4,84.4,0,0,0-161,35.51c0,44.72,35.33,81.71,79.53,84.25a84.37,84.37,0,0,0,158.21,14.61A84.36,84.36,0,0,0,414.69,310a84.4,84.4,0,0,0-5.82-168.6Zm0,43a41.39,41.39,0,0,1,5.5,82.41A84.28,84.28,0,0,0,369.52,213,41.69,41.69,0,0,1,408.87,184.42ZM372.13,302.36a41.39,41.39,0,0,1-78.63-.79,84,84,0,0,0,39-39.57A83.77,83.77,0,0,0,371,301.23V302Zm-164.29-7.43c.75.52,1.52,1,2.28,1.54s1.59,1,2.39,1.5,1.53.92,2.31,1.36l.21.12c.77.43,1.56.86,2.31,1.24l.49.26,1.56.78a41.39,41.39,0,0,1-78.88-.25,83.73,83.73,0,0,0,39.2-40.13c.74,1.6,1.51,3.13,2.27,4.53.42.78.85,1.54,1.26,2.24a84.3,84.3,0,0,0,8.28,11.81c.56.68,1.14,1.35,1.74,2s1.22,1.34,1.9,2.05c.53.57,1.07,1.13,1.45,1.49l.07.07.61.61c.5.49,1,1,1.58,1.51l.29.26c.68.62,1.36,1.22,2,1.77s1.29,1.1,2.12,1.78l.15.12c.7.56,1.39,1.1,2.12,1.65S207.07,294.39,207.84,294.93Zm21.34-74.46-.15-.1-.69-.49c-.32-.24-.65-.46-1-.68l-.66-.44c-.58-.39-1.18-.78-1.65-1.07l-.83-.52c-.66-.42-1.34-.82-2-1.19s-1.52-.87-2.09-1.17-1-.56-1.66-.88l-1.61-.81a41.38,41.38,0,0,1,78.84.17,83.89,83.89,0,0,0-39.26,40l-.33-.71-.56-1.15c-.61-1.22-1.28-2.5-2.1-3.94l-.12-.21-.5-.87c-.32-.54-.63-1.06-.91-1.51s-.63-1-.81-1.3c-.32-.5-.65-1-.92-1.41L250,242l-.58-.84c-.61-.9-1.25-1.79-1.79-2.5-.35-.47-.69-.92-1-1.27-.79-1-1.54-2-2.34-2.89l-.43-.51-.11-.13-.51-.58-.13-.14-.37-.42-.49-.54-.1-.1c-.37-.42-.75-.82-1.06-1.14-.52-.55-1.05-1.1-1.54-1.57l-.26-.26-.69-.68-.32-.31c-.4-.38-.81-.77-1.28-1.2-1-.92-2-1.81-3-2.59-.43-.37-.87-.73-1.17-1-.77-.63-1.49-1.18-2.05-1.6S229.67,220.82,229.18,220.47Zm-123.74,29c-.28.51-.54,1-.7,1.36-.36.69-.7,1.39-1,2l-.6,1.26c-.67,1.47-1.29,3-1.9,4.54l-.52,1.2-.16.6c-.16.46-.31.88-.41,1.19q-.29.81-.54,1.62l-.06.2c-.24.72-.46,1.45-.65,2.11-.15.49-.28,1-.4,1.42a41.39,41.39,0,1,1,44.07-53.63l-1.58.87c-.23.12-.47.24-.73.39l-2.77,1.54-.13.08-1.3.78-.59.36c-.68.42-1.35.85-1.79,1.15L133,219c-.51.34-1,.68-1.44,1l-.45.32c-.62.44-1.22.88-1.94,1.42l-.49.38c-.58.45-1.17.91-1.94,1.53l-1.22,1-1,.81c-.64.56-1.29,1.14-2.08,1.87l-1.55,1.48-.84.84-.11.11c-.49.5-1,1-1.54,1.6l-.11.12c-.45.48-.89,1-1.22,1.33l-.42.47-.17.2c-.49.55-1,1.11-1.5,1.75s-1.25,1.54-1.92,2.4l-.07.1c-.51.65-1,1.31-1.31,1.76s-.79,1.08-1.16,1.63a6.18,6.18,0,0,0-.36.53l-.74,1-.22.46c-.32.48-.62,1-.92,1.44s-.58.93-.81,1.32l-.4.68-.32.56c-.32.54-.62,1.08-.91,1.63C105.72,248.93,105.58,249.19,105.44,249.46Z"/><g><path class="cls-1" d="M301.22,242.43l-1,.72c.18-.13.38-.26.55-.4Z"/><path class="cls-1" d="M361.34,240.33c-1.3-.76-2.65-1.47-4-2.13C358.69,238.85,360,239.56,361.34,240.33Z"/><path class="cls-1" d="M361.34,240.33c-1.3-.76-2.65-1.47-4-2.13C358.69,238.85,360,239.56,361.34,240.33Z"/><path class="cls-1" d="M248.79,298.22a69.41,69.41,0,0,1-137.58.14c-.16-1.19-.29-2.38-.39-3.59-.15-1.89-.23-3.79-.23-5.72a67.19,67.19,0,0,1,.4-7.41c.06-.44.1-.88.15-1.31l.18-1.29.12-.84s0-.09,0-.13,0-.07,0-.1c.09-.51.17-1,.26-1.5.06-.3.12-.6.17-.9.11-.51.2-1,.31-1.52l0-.12c.06-.34.14-.67.22-1,.13-.56.28-1.11.42-1.67s.27-1,.42-1.51.33-1.13.52-1.68c0-.1.06-.21.09-.31.14-.41.26-.81.41-1.21s.36-1.08.57-1.62l0-.06c.1-.24.18-.47.27-.71.5-1.31,1-2.59,1.62-3.86.16-.36.33-.71.5-1.07.25-.54.52-1.07.79-1.6l0-.06.57-1.09c.1-.18.18-.35.28-.52.24-.45.48-.89.74-1.33.14-.23.26-.45.39-.67s.18-.29.26-.44c.2-.34.41-.68.62-1,.38-.63.8-1.26,1.21-1.88a1,1,0,0,0,.09-.13c.07-.09.12-.19.18-.28l.26-.37a.41.41,0,0,1,.07-.11c.29-.44.6-.88.92-1.31s.79-1.07,1.19-1.6l.1-.12q.76-1,1.56-1.95c.4-.49.81-1,1.23-1.45h0c.12-.15.25-.29.37-.43.38-.42.75-.83,1.15-1.24l0-.07c.47-.49.93-1,1.41-1.45l.71-.7.12-.13,1.17-1.11c.52-.48,1.06-1,1.58-1.42.24-.21.48-.42.73-.62s.78-.66,1.19-1,1-.8,1.52-1.19c.14-.12.29-.23.44-.34l1.56-1.15.05,0c.47-.34.95-.67,1.43-1l.61-.4c.49-.33,1-.65,1.49-1l.39-.23c.58-.36,1.17-.71,1.76-1.06h0c.6-.35,1.21-.68,1.83-1l.38-.2c.6-.32,1.22-.63,1.83-.93h0c.13-.05.23-.11.36-.17l.89-.42.9-.41c.69-.31,1.38-.6,2.08-.89l.11,0c.7-.28,1.4-.55,2.12-.81q0,1,0,1.92a52.92,52.92,0,0,1-1.59,12.92,56.51,56.51,0,0,0-28.86,35.09h0c-.37,1.35-.7,2.7-1,4.09a56,56,0,0,0-1.1,11.14c0,1,0,2,.07,3.05.08,1.24.18,2.46.33,3.68a56.39,56.39,0,0,0,112,0A71.14,71.14,0,0,0,248.79,298.22Z"/><path class="cls-1" d="M401.77,298.05a69.41,69.41,0,0,1-137.63.12c-.15-1.12-.27-2.25-.35-3.38-.17-1.89-.24-3.81-.24-5.74a69.19,69.19,0,0,1,.38-7.38q.18-1.74.45-3.45a69.5,69.5,0,0,1,44.74-54.37c0,.65,0,1.3,0,2a53.58,53.58,0,0,1-1.57,12.88c-1.1.55-2.16,1.13-3.2,1.74l-.68.41c-.85.51-1.67,1-2.49,1.6l-.48.32c-.17.14-.37.27-.55.4s-.64.47-1,.71l-.78.59c-.32.24-.62.49-.93.75s-.6.47-.89.72c-.74.62-1.46,1.27-2.17,1.93-.36.33-.71.67-1.05,1l-.7.7c-.61.62-1.21,1.26-1.78,1.9-.23.25-.45.5-.66.76a55.77,55.77,0,0,0-6.58,9.37c-.28.5-.56,1-.82,1.53s-.52,1-.77,1.55-.5,1.05-.73,1.58-.4.91-.57,1.37-.4.93-.57,1.41q-.2.48-.36,1c-.46,1.25-.87,2.53-1.23,3.83l0,.12c-.13.4-.23.81-.32,1.21s-.22.9-.33,1.35a.19.19,0,0,0,0,.08c-.1.45-.21.92-.3,1.38a55.91,55.91,0,0,0-1.09,11.06c0,1,0,2.08.08,3.11s.17,2.32.3,3.46a56.39,56.39,0,0,0,112,0A72.16,72.16,0,0,0,401.77,298.05Z"/><path class="cls-1" d="M301.22,242.43l-1,.72c.18-.13.38-.26.55-.4Z"/><path class="cls-1" d="M301.22,242.43l-1,.72c.18-.13.38-.26.55-.4Z"/><path class="cls-1" d="M361.34,240.33c-1.3-.76-2.65-1.47-4-2.13C358.69,238.85,360,239.56,361.34,240.33Z"/><path class="cls-1" d="M248.55,278.32a52.29,52.29,0,0,1-14.16-4.1c-.12-.5-.28-1-.42-1.48s-.31-1-.48-1.5c-.34-1-.7-2.06-1.12-3.06-.13-.36-.28-.71-.43-1.06a.89.89,0,0,0-.08-.17c-.17-.43-.35-.85-.54-1.27a.65.65,0,0,0-.09-.16c-.16-.37-.33-.73-.51-1.09q-1.11-2.3-2.42-4.47c-.26-.44-.53-.88-.82-1.31s-.47-.75-.72-1.12-.4-.59-.62-.88l-.28-.39c-.19-.28-.4-.56-.59-.83a55.9,55.9,0,0,0-4-4.73c-.33-.37-.68-.73-1-1.08l-1-1c-.27-.27-.54-.53-.83-.79l-.74-.67c-.22-.21-.45-.42-.69-.62-.81-.7-1.63-1.38-2.47-2-.45-.35-.9-.69-1.36-1s-.73-.53-1.1-.78l-.69-.48c-.31-.22-.64-.43-1-.64l-.23-.15c-.37-.24-.77-.48-1.16-.71s-.6-.37-.91-.54-.6-.35-.92-.52c-.88-.49-1.77-.95-2.67-1.39-.6-.29-1.19-.57-1.79-.83s-1.21-.52-1.83-.77a56.15,56.15,0,0,0-13.66-3.56c-1.22-.15-2.43-.27-3.66-.34s-2.41-.12-3.62-.12c-1.4,0-2.81.05-4.19.16a68.1,68.1,0,0,0,.34-7c0-2-.07-4-.25-6,1.37-.08,2.72-.12,4.1-.12,1.17,0,2.33,0,3.49.09s2.43.15,3.63.27A68.76,68.76,0,0,1,200,222.57c.54.16,1.07.32,1.58.5s1,.34,1.56.53l1.08.39,1.08.41.11,0c.71.28,1.42.57,2.1.87.36.15.69.29,1,.45l1,.46.09.05c.71.33,1.41.68,2.09,1,.41.21.82.42,1.21.64.63.33,1.23.68,1.85,1s1,.56,1.43.86l.92.57c.41.25.81.52,1.21.79l.77.51c.19.12.37.25.55.39s.5.35.75.53c.48.34,1,.69,1.43,1.05s1.1.84,1.64,1.28c.31.24.61.49.91.75.87.72,1.72,1.46,2.56,2.23.41.37.79.74,1.18,1.12l.1.09c.18.17.36.34.52.51l.11.12c.48.46,1,.94,1.4,1.42.31.31.62.63.9,1l.15.15.32.36c.18.19.34.39.51.58,0,0,0,0,0,.05.25.28.5.57.73.86l0,0c.66.76,1.28,1.54,1.91,2.34l.75,1c.52.67,1,1.35,1.48,2l.7,1c.24.35.46.71.69,1.07s.45.71.67,1.07.51.84.76,1.27.4.67.58,1c.58,1,1.12,2,1.64,3.09.18.35.34.7.51,1s.33.7.49,1.06c.33.7.65,1.42.94,2.14.14.34.29.68.42,1s.27.69.4,1l0,.05c.16.39.29.79.43,1.19s.27.74.39,1.11.25.75.38,1.12c.48,1.5.92,3,1.28,4.57.07.31.16.61.22.92a.1.1,0,0,1,0,.07s0,.05,0,.07c.09.4.17.79.25,1.19s.13.55.17.83.13.66.19,1C248.36,277.12,248.46,277.72,248.55,278.32Z"/><path class="cls-1" d="M301.22,242.43l-1,.72c.18-.13.38-.26.55-.4Z"/><path class="cls-1" d="M478.27,225.81a69.4,69.4,0,0,1-69.41,69.39c-.92,0-1.82,0-2.74-.06-1.34-.05-2.69-.14-4-.27a68.25,68.25,0,0,1-12.88-2.49c-1.11-.33-2.2-.68-3.29-1.06h0a69.41,69.41,0,0,1-45.65-54.81,52.12,52.12,0,0,1,14.15,4,56.36,56.36,0,0,0,30.11,36.15q1.84.9,3.75,1.65A56.09,56.09,0,0,0,402,281.77c1.4.17,2.82.29,4.24.35.89.05,1.77.07,2.66.07a56.39,56.39,0,1,0-55.75-64.74A72.49,72.49,0,0,0,340.3,215a69.41,69.41,0,0,1,138,10.8Z"/><path class="cls-1" d="M172.53,225.81a67,67,0,0,1-.41,7.4c-.11,1.14-.26,2.28-.45,3.41A69.44,69.44,0,0,1,126.86,291c0-.66,0-1.32,0-2a53.5,53.5,0,0,1,1.55-12.81A56.46,56.46,0,0,0,157.44,241c.38-1.32.69-2.65,1-4h0a56.7,56.7,0,0,0,1.11-11.13c0-1,0-2.05-.09-3.06-.07-1.54-.23-3.06-.42-4.56a56.39,56.39,0,1,0-55.89,64c1.22,0,2.42,0,3.59-.12-.16,2-.25,4-.25,6.06,0,2.35.11,4.68.34,7-1.21.07-2.44.1-3.68.1a69.4,69.4,0,1,1,68.67-79.48c.22,1.44.37,2.89.5,4.36C172.44,222,172.53,223.88,172.53,225.81Z"/><path class="cls-1" d="M259.71,295.11c-1.14.06-2.28.09-3.43.09-1.54,0-3.06-.05-4.57-.15-.85-.05-1.72-.12-2.57-.21a68,68,0,0,1-12.85-2.57c-.6-.17-1.18-.36-1.76-.55s-1.05-.35-1.56-.54l-.1,0-.25-.09c-.6-.22-1.21-.45-1.8-.69l-.59-.23-1.6-.66-.26-.12c-.55-.24-1.09-.49-1.64-.75l-.57-.27-1.7-.85-.12-.07c-.7-.35-1.38-.72-2-1.1l-.07,0c-.64-.37-1.3-.75-1.93-1.14s-1.32-.81-2-1.23-1.27-.85-1.91-1.29-1.25-.89-1.86-1.35-1.15-.88-1.71-1.34l-.2-.15c-.55-.46-1.11-.92-1.67-1.4s-1.15-1-1.71-1.53a2.4,2.4,0,0,1-.23-.21c-.46-.42-.9-.84-1.33-1.26l-.48-.48c-.42-.41-.83-.84-1.23-1.27s-1.06-1.12-1.57-1.69-1-1.11-1.43-1.67a68.25,68.25,0,0,1-6.8-9.69c-.34-.58-.66-1.16-1-1.76-.86-1.58-1.65-3.2-2.38-4.84l-.38-.87c-.26-.6-.5-1.2-.75-1.8-.12-.31-.24-.63-.35-.95a67.07,67.07,0,0,1-2.48-7.94c-.08-.39-.18-.77-.27-1.16-.22-1-.42-2-.59-2.94a8.35,8.35,0,0,1-.18-1c0-.25-.08-.49-.13-.74a52.21,52.21,0,0,1,14.19,4.21c.4,1.47.87,2.91,1.39,4.33.16.47.34.94.53,1.41s.37.93.57,1.39.37.84.55,1.25c.05.12.11.25.17.37.16.33.31.67.48,1a.06.06,0,0,0,0,.05c.19.39.38.77.58,1.15s.54,1,.84,1.55.49.86.75,1.29c.11.22.25.43.38.64.24.41.49.81.76,1.21a9,9,0,0,0,.5.76c.28.43.59.85.88,1.27s.5.71.77,1.06c1,1.28,2,2.51,3,3.7.37.43.75.85,1.15,1.27l.93,1,.9.89.17.17.75.7c.5.47,1,.92,1.54,1.37l.27.24q.73.62,1.47,1.2l.18.15,1.12.84.82.61c.37.27.73.53,1.12.78s.58.41.89.6l.15.1.63.41c1.27.8,2.58,1.55,3.91,2.25l1,.53.3.15c.55.27,1.12.53,1.68.79.29.14.6.27.92.4s.86.37,1.31.55A56.11,56.11,0,0,0,249,281.73c.92.12,1.85.21,2.8.28,1.48.12,3,.18,4.49.18,1.12,0,2.25,0,3.35-.1q-.25,3-.25,6.09Q259.38,291.69,259.71,295.11Z"/><path class="cls-1" d="M301.22,242.43l-1,.72c.18-.13.38-.26.55-.4Z"/><path class="cls-1" d="M248.79,298.22a69.41,69.41,0,0,1-137.58.14c-.16-1.19-.29-2.38-.39-3.59-.15-1.89-.23-3.79-.23-5.72a67.19,67.19,0,0,1,.4-7.41c.06-.44.1-.88.15-1.31l.18-1.29.12-.84s0-.09,0-.13,0-.07,0-.1c.09-.51.17-1,.26-1.5.06-.3.12-.6.17-.9.11-.51.2-1,.31-1.52l0-.12c.06-.34.14-.67.22-1,.13-.56.28-1.11.42-1.67s.27-1,.42-1.51.33-1.13.52-1.68c0-.1.06-.21.09-.31.14-.41.26-.81.41-1.21s.36-1.08.57-1.62l0-.06c.1-.24.18-.47.27-.71.5-1.31,1-2.59,1.62-3.86.16-.36.33-.71.5-1.07.25-.54.52-1.07.79-1.6l0-.06.57-1.09c.1-.18.18-.35.28-.52.24-.45.48-.89.74-1.33.14-.23.26-.45.39-.67s.18-.29.26-.44c.2-.34.41-.68.62-1,.38-.63.8-1.26,1.21-1.88a1,1,0,0,0,.09-.13c.07-.09.12-.19.18-.28l.26-.37a.41.41,0,0,1,.07-.11c.29-.44.6-.88.92-1.31s.79-1.07,1.19-1.6l.1-.12q.76-1,1.56-1.95c.4-.49.81-1,1.23-1.45h0c.12-.15.25-.29.37-.43.38-.42.75-.83,1.15-1.24l0-.07c.47-.49.93-1,1.41-1.45l.71-.7.12-.13,1.17-1.11c.52-.48,1.06-1,1.58-1.42.24-.21.48-.42.73-.62s.78-.66,1.19-1,1-.8,1.52-1.19c.14-.12.29-.23.44-.34l1.56-1.15.05,0c.47-.34.95-.67,1.43-1l.61-.4c.49-.33,1-.65,1.49-1l.39-.23c.58-.36,1.17-.71,1.76-1.06h0c.6-.35,1.21-.68,1.83-1l.38-.2c.6-.32,1.22-.63,1.83-.93h0c.13-.05.23-.11.36-.17l.89-.42.9-.41c.69-.31,1.38-.6,2.08-.89l.11,0c.7-.28,1.4-.55,2.12-.81q0,1,0,1.92a52.92,52.92,0,0,1-1.59,12.92,56.51,56.51,0,0,0-28.86,35.09h0c-.37,1.35-.7,2.7-1,4.09a56,56,0,0,0-1.1,11.14c0,1,0,2,.07,3.05.08,1.24.18,2.46.33,3.68a56.39,56.39,0,0,0,112,0A71.14,71.14,0,0,0,248.79,298.22Z"/><path class="cls-1" d="M175.8,232.82a68.1,68.1,0,0,0,.34-7c0-2-.07-4-.25-6,1.37-.08,2.72-.12,4.1-.12,1.17,0,2.33,0,3.49.09s2.43.15,3.63.27A68.76,68.76,0,0,1,200,222.57c.54.16,1.07.32,1.58.5s1,.34,1.56.53l1.08.39,1.08.41.11,0c.71.28,1.42.57,2.1.87.36.15.69.29,1,.45l1,.46.09.05c.71.33,1.41.68,2.09,1,.41.21.82.42,1.21.64.63.33,1.23.68,1.85,1s1,.56,1.43.86l.92.57c.41.25.81.52,1.21.79l.77.51c.19.12.37.25.55.39s.5.35.75.53c.48.34,1,.69,1.43,1.05s1.1.84,1.64,1.28c.31.24.61.49.91.75.87.72,1.72,1.46,2.56,2.23.41.37.79.74,1.18,1.12l.1.09c.18.17.36.34.52.51l.11.12c.48.46,1,.94,1.4,1.42.31.31.62.63.9,1l.15.15.32.36c.18.19.34.39.51.58,0,0,0,0,0,.05.25.28.5.57.73.86l0,0c.66.76,1.28,1.54,1.91,2.34l.75,1c.52.67,1,1.35,1.48,2l.7,1c.24.35.46.71.69,1.07s.45.71.67,1.07.51.84.76,1.27.4.67.58,1c.58,1,1.12,2,1.64,3.09.18.35.34.7.51,1s.33.7.49,1.06c.33.7.65,1.42.94,2.14.14.34.29.68.42,1s.27.69.4,1l0,.05c.16.39.29.79.43,1.19s.27.74.39,1.11.25.75.38,1.12c.48,1.5.92,3,1.28,4.57.07.31.16.61.22.92a.1.1,0,0,1,0,.07s0,.05,0,.07c.09.4.17.79.25,1.19s.13.55.17.83.13.66.19,1c.12.6.22,1.2.31,1.8a52.29,52.29,0,0,1-14.16-4.1c-.12-.5-.28-1-.42-1.48s-.31-1-.48-1.5c-.34-1-.7-2.06-1.12-3.06-.13-.36-.28-.71-.43-1.06a.89.89,0,0,0-.08-.17c-.17-.43-.35-.85-.54-1.27a.65.65,0,0,0-.09-.16c-.16-.37-.33-.73-.51-1.09q-1.11-2.3-2.42-4.47c-.26-.44-.53-.88-.82-1.31s-.47-.75-.72-1.12-.4-.59-.62-.88l-.28-.39c-.19-.28-.4-.56-.59-.83a55.9,55.9,0,0,0-4-4.73c-.33-.37-.68-.73-1-1.08l-1-1c-.27-.27-.54-.53-.83-.79l-.74-.67c-.22-.21-.45-.42-.69-.62-.81-.7-1.63-1.38-2.47-2-.45-.35-.9-.69-1.36-1s-.73-.53-1.1-.78l-.69-.48c-.31-.22-.64-.43-1-.64l-.23-.15c-.37-.24-.77-.48-1.16-.71s-.6-.37-.91-.54-.6-.35-.92-.52c-.88-.49-1.77-.95-2.67-1.39-.6-.29-1.19-.57-1.79-.83s-1.21-.52-1.83-.77a56.15,56.15,0,0,0-13.66-3.56c-1.22-.15-2.43-.27-3.66-.34s-2.41-.12-3.62-.12C178.59,232.66,177.18,232.71,175.8,232.82Z"/><path class="cls-1" d="M325.66,225.81a69,69,0,0,1-.38,7.37c-.13,1.15-.27,2.29-.46,3.43a69.47,69.47,0,0,1-44.89,54.45c0-.67,0-1.34,0-2a53.25,53.25,0,0,1,1.55-12.78,56.38,56.38,0,0,0,29.15-35.34c.38-1.33.71-2.69,1-4.06a55.88,55.88,0,0,0,1.08-11.05c0-1.05,0-2.09-.08-3.12-.09-1.7-.25-3.39-.5-5a56.39,56.39,0,0,0-111.71.8,70.72,70.72,0,0,0-12.77-2.63,69.4,69.4,0,0,1,137.25-.74c.25,1.64.45,3.3.58,5C325.59,222,325.66,223.87,325.66,225.81Z"/><path class="cls-1" d="M401.52,278.34a52.42,52.42,0,0,1-14.16-4c-.17-.61-.33-1.22-.52-1.83-.42-1.36-.89-2.7-1.41-4-.13-.36-.28-.72-.42-1.07-.08-.18-.15-.36-.22-.53-.18-.41-.37-.81-.55-1.21s-.42-.92-.65-1.37-.44-.91-.68-1.36c-.47-.89-1-1.78-1.48-2.64-.19-.32-.38-.64-.59-1-.36-.59-.73-1.18-1.13-1.75-.2-.32-.41-.63-.64-.94s-.48-.69-.73-1l-.75-1q-1.38-1.78-2.89-3.45c-.24-.27-.49-.54-.74-.8s-.62-.66-.93-1-.48-.49-.73-.72l-.35-.34c-.31-.3-.61-.59-.92-.87-.74-.68-1.49-1.34-2.27-2l-1.17-.94c-.4-.32-.79-.62-1.21-.91s-.81-.6-1.23-.88-.74-.51-1.1-.76l-.35-.22c-.34-.24-.71-.47-1.07-.68l-1.29-.78c-1.3-.77-2.65-1.48-4-2.13-.71-.35-1.45-.69-2.19-1-.52-.23-1.08-.46-1.61-.67h0a55.73,55.73,0,0,0-13.67-3.45c-1.1-.14-2.21-.24-3.32-.3s-2.38-.12-3.58-.12c-1.35,0-2.72.05-4.06.15a71.42,71.42,0,0,0,.36-7.2c0-2-.08-3.92-.22-5.85,1.3-.07,2.6-.11,3.92-.11s2.35,0,3.49.09,2.19.13,3.27.24a68.66,68.66,0,0,1,12.89,2.49c1.11.33,2.23.69,3.32,1.08A69.47,69.47,0,0,1,401.52,278.34Z"/><path class="cls-1" d="M361.34,240.33c-1.3-.76-2.65-1.47-4-2.13C358.69,238.85,360,239.56,361.34,240.33Z"/><path class="cls-1" d="M401.77,298.05a69.41,69.41,0,0,1-137.63.12c-.15-1.12-.27-2.25-.35-3.38-.17-1.89-.24-3.81-.24-5.74a69.19,69.19,0,0,1,.38-7.38q.18-1.74.45-3.45a69.5,69.5,0,0,1,44.74-54.37c0,.65,0,1.3,0,2a53.58,53.58,0,0,1-1.57,12.88c-1.1.55-2.16,1.13-3.2,1.74l-.68.41c-.85.51-1.67,1-2.49,1.6l-1,.72c-.33.23-.64.47-1,.71l-.78.59c-.32.24-.62.49-.93.75s-.6.47-.89.72c-.74.62-1.46,1.27-2.17,1.93-.36.33-.71.67-1.05,1l-.7.7c-.61.62-1.21,1.26-1.78,1.9-.23.25-.45.5-.66.76a55.77,55.77,0,0,0-6.58,9.37c-.28.5-.56,1-.82,1.53s-.52,1-.77,1.55-.5,1.05-.73,1.58-.4.91-.57,1.37-.4.93-.57,1.41q-.2.48-.36,1c-.46,1.25-.87,2.53-1.23,3.83l0,.12c-.13.4-.23.81-.32,1.21s-.22.9-.33,1.35a.19.19,0,0,0,0,.08c-.1.45-.21.92-.3,1.38a55.91,55.91,0,0,0-1.09,11.06c0,1,0,2.08.08,3.11s.17,2.32.3,3.46a56.39,56.39,0,0,0,112,0A72.16,72.16,0,0,0,401.77,298.05Z"/><path class="cls-1" d="M361.34,240.33c-1.3-.76-2.65-1.47-4-2.13C358.69,238.85,360,239.56,361.34,240.33Z"/><path class="cls-1" d="M478.27,225.81a69.4,69.4,0,0,1-69.41,69.39c-.92,0-1.82,0-2.74-.06-1.34-.05-2.69-.14-4-.27a68.25,68.25,0,0,1-12.88-2.49c-1.11-.33-2.2-.68-3.29-1.06h0a69.41,69.41,0,0,1-45.65-54.81,52.12,52.12,0,0,1,14.15,4,56.36,56.36,0,0,0,30.11,36.15q1.84.9,3.75,1.65A56.09,56.09,0,0,0,402,281.77c1.4.17,2.82.29,4.24.35.89.05,1.77.07,2.66.07a56.39,56.39,0,1,0-55.75-64.74A72.49,72.49,0,0,0,340.3,215a69.41,69.41,0,0,1,138,10.8Z"/></g><g><path class="cls-2" d="M301.22,242.43l-1,.72c.18-.13.38-.26.55-.4Z"/><path class="cls-2" d="M361.34,240.33c-1.3-.76-2.65-1.47-4-2.13C358.69,238.85,360,239.56,361.34,240.33Z"/><path class="cls-2" d="M361.34,240.33c-1.3-.76-2.65-1.47-4-2.13C358.69,238.85,360,239.56,361.34,240.33Z"/><path class="cls-2" d="M248.79,298.22a69.41,69.41,0,0,1-137.58.14c-.16-1.19-.29-2.38-.39-3.59-.15-1.89-.23-3.79-.23-5.72a67.19,67.19,0,0,1,.4-7.41c.06-.44.1-.88.15-1.31l.18-1.29.12-.84s0-.09,0-.13,0-.07,0-.1c.09-.51.17-1,.26-1.5.06-.3.12-.6.17-.9.11-.51.2-1,.31-1.52l0-.12c.06-.34.14-.67.22-1,.13-.56.28-1.11.42-1.67s.27-1,.42-1.51.33-1.13.52-1.68c0-.1.06-.21.09-.31.14-.41.26-.81.41-1.21s.36-1.08.57-1.62l0-.06c.1-.24.18-.47.27-.71.5-1.31,1-2.59,1.62-3.86.16-.36.33-.71.5-1.07.25-.54.52-1.07.79-1.6l0-.06.57-1.09c.1-.18.18-.35.28-.52.24-.45.48-.89.74-1.33.14-.23.26-.45.39-.67s.18-.29.26-.44c.2-.34.41-.68.62-1,.38-.63.8-1.26,1.21-1.88a1,1,0,0,0,.09-.13c.07-.09.12-.19.18-.28l.26-.37a.41.41,0,0,1,.07-.11c.29-.44.6-.88.92-1.31s.79-1.07,1.19-1.6l.1-.12q.76-1,1.56-1.95c.4-.49.81-1,1.23-1.45h0c.12-.15.25-.29.37-.43.38-.42.75-.83,1.15-1.24l0-.07c.47-.49.93-1,1.41-1.45l.71-.7.12-.13,1.17-1.11c.52-.48,1.06-1,1.58-1.42.24-.21.48-.42.73-.62s.78-.66,1.19-1,1-.8,1.52-1.19c.14-.12.29-.23.44-.34l1.56-1.15.05,0c.47-.34.95-.67,1.43-1l.61-.4c.49-.33,1-.65,1.49-1l.39-.23c.58-.36,1.17-.71,1.76-1.06h0c.6-.35,1.21-.68,1.83-1l.38-.2c.6-.32,1.22-.63,1.83-.93h0c.13-.05.23-.11.36-.17l.89-.42.9-.41c.69-.31,1.38-.6,2.08-.89l.11,0c.7-.28,1.4-.55,2.12-.81q0,1,0,1.92a52.92,52.92,0,0,1-1.59,12.92,56.51,56.51,0,0,0-28.86,35.09h0c-.37,1.35-.7,2.7-1,4.09a56,56,0,0,0-1.1,11.14c0,1,0,2,.07,3.05.08,1.24.18,2.46.33,3.68a56.39,56.39,0,0,0,112,0A71.14,71.14,0,0,0,248.79,298.22Z"/><path class="cls-2" d="M401.77,298.05a69.41,69.41,0,0,1-137.63.12c-.15-1.12-.27-2.25-.35-3.38-.17-1.89-.24-3.81-.24-5.74a69.19,69.19,0,0,1,.38-7.38q.18-1.74.45-3.45a69.5,69.5,0,0,1,44.74-54.37c0,.65,0,1.3,0,2a53.58,53.58,0,0,1-1.57,12.88c-1.1.55-2.16,1.13-3.2,1.74l-.68.41c-.85.51-1.67,1-2.49,1.6l-.48.32c-.17.14-.37.27-.55.4s-.64.47-1,.71l-.78.59c-.32.24-.62.49-.93.75s-.6.47-.89.72c-.74.62-1.46,1.27-2.17,1.93-.36.33-.71.67-1.05,1l-.7.7c-.61.62-1.21,1.26-1.78,1.9-.23.25-.45.5-.66.76a55.77,55.77,0,0,0-6.58,9.37c-.28.5-.56,1-.82,1.53s-.52,1-.77,1.55-.5,1.05-.73,1.58-.4.91-.57,1.37-.4.93-.57,1.41q-.2.48-.36,1c-.46,1.25-.87,2.53-1.23,3.83l0,.12c-.13.4-.23.81-.32,1.21s-.22.9-.33,1.35a.19.19,0,0,0,0,.08c-.1.45-.21.92-.3,1.38a55.91,55.91,0,0,0-1.09,11.06c0,1,0,2.08.08,3.11s.17,2.32.3,3.46a56.39,56.39,0,0,0,112,0A72.16,72.16,0,0,0,401.77,298.05Z"/><path class="cls-2" d="M301.22,242.43l-1,.72c.18-.13.38-.26.55-.4Z"/><path class="cls-2" d="M301.22,242.43l-1,.72c.18-.13.38-.26.55-.4Z"/><path class="cls-2" d="M361.34,240.33c-1.3-.76-2.65-1.47-4-2.13C358.69,238.85,360,239.56,361.34,240.33Z"/><path class="cls-2" d="M248.55,278.32a52.29,52.29,0,0,1-14.16-4.1c-.12-.5-.28-1-.42-1.48s-.31-1-.48-1.5c-.34-1-.7-2.06-1.12-3.06-.13-.36-.28-.71-.43-1.06a.89.89,0,0,0-.08-.17c-.17-.43-.35-.85-.54-1.27a.65.65,0,0,0-.09-.16c-.16-.37-.33-.73-.51-1.09q-1.11-2.3-2.42-4.47c-.26-.44-.53-.88-.82-1.31s-.47-.75-.72-1.12-.4-.59-.62-.88l-.28-.39c-.19-.28-.4-.56-.59-.83a55.9,55.9,0,0,0-4-4.73c-.33-.37-.68-.73-1-1.08l-1-1c-.27-.27-.54-.53-.83-.79l-.74-.67c-.22-.21-.45-.42-.69-.62-.81-.7-1.63-1.38-2.47-2-.45-.35-.9-.69-1.36-1s-.73-.53-1.1-.78l-.69-.48c-.31-.22-.64-.43-1-.64l-.23-.15c-.37-.24-.77-.48-1.16-.71s-.6-.37-.91-.54-.6-.35-.92-.52c-.88-.49-1.77-.95-2.67-1.39-.6-.29-1.19-.57-1.79-.83s-1.21-.52-1.83-.77a56.15,56.15,0,0,0-13.66-3.56c-1.22-.15-2.43-.27-3.66-.34s-2.41-.12-3.62-.12c-1.4,0-2.81.05-4.19.16a68.1,68.1,0,0,0,.34-7c0-2-.07-4-.25-6,1.37-.08,2.72-.12,4.1-.12,1.17,0,2.33,0,3.49.09s2.43.15,3.63.27A68.76,68.76,0,0,1,200,222.57c.54.16,1.07.32,1.58.5s1,.34,1.56.53l1.08.39,1.08.41.11,0c.71.28,1.42.57,2.1.87.36.15.69.29,1,.45l1,.46.09.05c.71.33,1.41.68,2.09,1,.41.21.82.42,1.21.64.63.33,1.23.68,1.85,1s1,.56,1.43.86l.92.57c.41.25.81.52,1.21.79l.77.51c.19.12.37.25.55.39s.5.35.75.53c.48.34,1,.69,1.43,1.05s1.1.84,1.64,1.28c.31.24.61.49.91.75.87.72,1.72,1.46,2.56,2.23.41.37.79.74,1.18,1.12l.1.09c.18.17.36.34.52.51l.11.12c.48.46,1,.94,1.4,1.42.31.31.62.63.9,1l.15.15.32.36c.18.19.34.39.51.58,0,0,0,0,0,.05.25.28.5.57.73.86l0,0c.66.76,1.28,1.54,1.91,2.34l.75,1c.52.67,1,1.35,1.48,2l.7,1c.24.35.46.71.69,1.07s.45.71.67,1.07.51.84.76,1.27.4.67.58,1c.58,1,1.12,2,1.64,3.09.18.35.34.7.51,1s.33.7.49,1.06c.33.7.65,1.42.94,2.14.14.34.29.68.42,1s.27.69.4,1l0,.05c.16.39.29.79.43,1.19s.27.74.39,1.11.25.75.38,1.12c.48,1.5.92,3,1.28,4.57.07.31.16.61.22.92a.1.1,0,0,1,0,.07s0,.05,0,.07c.09.4.17.79.25,1.19s.13.55.17.83.13.66.19,1C248.36,277.12,248.46,277.72,248.55,278.32Z"/><path class="cls-2" d="M301.22,242.43l-1,.72c.18-.13.38-.26.55-.4Z"/><path class="cls-2" d="M478.27,225.81a69.4,69.4,0,0,1-69.41,69.39c-.92,0-1.82,0-2.74-.06-1.34-.05-2.69-.14-4-.27a68.25,68.25,0,0,1-12.88-2.49c-1.11-.33-2.2-.68-3.29-1.06h0a69.41,69.41,0,0,1-45.65-54.81,52.12,52.12,0,0,1,14.15,4,56.36,56.36,0,0,0,30.11,36.15q1.84.9,3.75,1.65A56.09,56.09,0,0,0,402,281.77c1.4.17,2.82.29,4.24.35.89.05,1.77.07,2.66.07a56.39,56.39,0,1,0-55.75-64.74A72.49,72.49,0,0,0,340.3,215a69.41,69.41,0,0,1,138,10.8Z"/><path class="cls-2" d="M172.53,225.81a67,67,0,0,1-.41,7.4c-.11,1.14-.26,2.28-.45,3.41A69.44,69.44,0,0,1,126.86,291c0-.66,0-1.32,0-2a53.5,53.5,0,0,1,1.55-12.81A56.46,56.46,0,0,0,157.44,241c.38-1.32.69-2.65,1-4h0a56.7,56.7,0,0,0,1.11-11.13c0-1,0-2.05-.09-3.06-.07-1.54-.23-3.06-.42-4.56a56.39,56.39,0,1,0-55.89,64c1.22,0,2.42,0,3.59-.12-.16,2-.25,4-.25,6.06,0,2.35.11,4.68.34,7-1.21.07-2.44.1-3.68.1a69.4,69.4,0,1,1,68.67-79.48c.22,1.44.37,2.89.5,4.36C172.44,222,172.53,223.88,172.53,225.81Z"/><path class="cls-2" d="M259.71,295.11c-1.14.06-2.28.09-3.43.09-1.54,0-3.06-.05-4.57-.15-.85-.05-1.72-.12-2.57-.21a68,68,0,0,1-12.85-2.57c-.6-.17-1.18-.36-1.76-.55s-1.05-.35-1.56-.54l-.1,0-.25-.09c-.6-.22-1.21-.45-1.8-.69l-.59-.23-1.6-.66-.26-.12c-.55-.24-1.09-.49-1.64-.75l-.57-.27-1.7-.85-.12-.07c-.7-.35-1.38-.72-2-1.1l-.07,0c-.64-.37-1.3-.75-1.93-1.14s-1.32-.81-2-1.23-1.27-.85-1.91-1.29-1.25-.89-1.86-1.35-1.15-.88-1.71-1.34l-.2-.15c-.55-.46-1.11-.92-1.67-1.4s-1.15-1-1.71-1.53a2.4,2.4,0,0,1-.23-.21c-.46-.42-.9-.84-1.33-1.26l-.48-.48c-.42-.41-.83-.84-1.23-1.27s-1.06-1.12-1.57-1.69-1-1.11-1.43-1.67a68.25,68.25,0,0,1-6.8-9.69c-.34-.58-.66-1.16-1-1.76-.86-1.58-1.65-3.2-2.38-4.84l-.38-.87c-.26-.6-.5-1.2-.75-1.8-.12-.31-.24-.63-.35-.95a67.07,67.07,0,0,1-2.48-7.94c-.08-.39-.18-.77-.27-1.16-.22-1-.42-2-.59-2.94a8.35,8.35,0,0,1-.18-1c0-.25-.08-.49-.13-.74a52.21,52.21,0,0,1,14.19,4.21c.4,1.47.87,2.91,1.39,4.33.16.47.34.94.53,1.41s.37.93.57,1.39.37.84.55,1.25c.05.12.11.25.17.37.16.33.31.67.48,1a.06.06,0,0,0,0,.05c.19.39.38.77.58,1.15s.54,1,.84,1.55.49.86.75,1.29c.11.22.25.43.38.64.24.41.49.81.76,1.21a9,9,0,0,0,.5.76c.28.43.59.85.88,1.27s.5.71.77,1.06c1,1.28,2,2.51,3,3.7.37.43.75.85,1.15,1.27l.93,1,.9.89.17.17.75.7c.5.47,1,.92,1.54,1.37l.27.24q.73.62,1.47,1.2l.18.15,1.12.84.82.61c.37.27.73.53,1.12.78s.58.41.89.6l.15.1.63.41c1.27.8,2.58,1.55,3.91,2.25l1,.53.3.15c.55.27,1.12.53,1.68.79.29.14.6.27.92.4s.86.37,1.31.55A56.11,56.11,0,0,0,249,281.73c.92.12,1.85.21,2.8.28,1.48.12,3,.18,4.49.18,1.12,0,2.25,0,3.35-.1q-.25,3-.25,6.09Q259.38,291.69,259.71,295.11Z"/><path class="cls-2" d="M301.22,242.43l-1,.72c.18-.13.38-.26.55-.4Z"/><path class="cls-2" d="M248.79,298.22a69.41,69.41,0,0,1-137.58.14c-.16-1.19-.29-2.38-.39-3.59-.15-1.89-.23-3.79-.23-5.72a67.19,67.19,0,0,1,.4-7.41c.06-.44.1-.88.15-1.31l.18-1.29.12-.84s0-.09,0-.13,0-.07,0-.1c.09-.51.17-1,.26-1.5.06-.3.12-.6.17-.9.11-.51.2-1,.31-1.52l0-.12c.06-.34.14-.67.22-1,.13-.56.28-1.11.42-1.67s.27-1,.42-1.51.33-1.13.52-1.68c0-.1.06-.21.09-.31.14-.41.26-.81.41-1.21s.36-1.08.57-1.62l0-.06c.1-.24.18-.47.27-.71.5-1.31,1-2.59,1.62-3.86.16-.36.33-.71.5-1.07.25-.54.52-1.07.79-1.6l0-.06.57-1.09c.1-.18.18-.35.28-.52.24-.45.48-.89.74-1.33.14-.23.26-.45.39-.67s.18-.29.26-.44c.2-.34.41-.68.62-1,.38-.63.8-1.26,1.21-1.88a1,1,0,0,0,.09-.13c.07-.09.12-.19.18-.28l.26-.37a.41.41,0,0,1,.07-.11c.29-.44.6-.88.92-1.31s.79-1.07,1.19-1.6l.1-.12q.76-1,1.56-1.95c.4-.49.81-1,1.23-1.45h0c.12-.15.25-.29.37-.43.38-.42.75-.83,1.15-1.24l0-.07c.47-.49.93-1,1.41-1.45l.71-.7.12-.13,1.17-1.11c.52-.48,1.06-1,1.58-1.42.24-.21.48-.42.73-.62s.78-.66,1.19-1,1-.8,1.52-1.19c.14-.12.29-.23.44-.34l1.56-1.15.05,0c.47-.34.95-.67,1.43-1l.61-.4c.49-.33,1-.65,1.49-1l.39-.23c.58-.36,1.17-.71,1.76-1.06h0c.6-.35,1.21-.68,1.83-1l.38-.2c.6-.32,1.22-.63,1.83-.93h0c.13-.05.23-.11.36-.17l.89-.42.9-.41c.69-.31,1.38-.6,2.08-.89l.11,0c.7-.28,1.4-.55,2.12-.81q0,1,0,1.92a52.92,52.92,0,0,1-1.59,12.92,56.51,56.51,0,0,0-28.86,35.09h0c-.37,1.35-.7,2.7-1,4.09a56,56,0,0,0-1.1,11.14c0,1,0,2,.07,3.05.08,1.24.18,2.46.33,3.68a56.39,56.39,0,0,0,112,0A71.14,71.14,0,0,0,248.79,298.22Z"/><path class="cls-2" d="M175.8,232.82a68.1,68.1,0,0,0,.34-7c0-2-.07-4-.25-6,1.37-.08,2.72-.12,4.1-.12,1.17,0,2.33,0,3.49.09s2.43.15,3.63.27A68.76,68.76,0,0,1,200,222.57c.54.16,1.07.32,1.58.5s1,.34,1.56.53l1.08.39,1.08.41.11,0c.71.28,1.42.57,2.1.87.36.15.69.29,1,.45l1,.46.09.05c.71.33,1.41.68,2.09,1,.41.21.82.42,1.21.64.63.33,1.23.68,1.85,1s1,.56,1.43.86l.92.57c.41.25.81.52,1.21.79l.77.51c.19.12.37.25.55.39s.5.35.75.53c.48.34,1,.69,1.43,1.05s1.1.84,1.64,1.28c.31.24.61.49.91.75.87.72,1.72,1.46,2.56,2.23.41.37.79.74,1.18,1.12l.1.09c.18.17.36.34.52.51l.11.12c.48.46,1,.94,1.4,1.42.31.31.62.63.9,1l.15.15.32.36c.18.19.34.39.51.58,0,0,0,0,0,.05.25.28.5.57.73.86l0,0c.66.76,1.28,1.54,1.91,2.34l.75,1c.52.67,1,1.35,1.48,2l.7,1c.24.35.46.71.69,1.07s.45.71.67,1.07.51.84.76,1.27.4.67.58,1c.58,1,1.12,2,1.64,3.09.18.35.34.7.51,1s.33.7.49,1.06c.33.7.65,1.42.94,2.14.14.34.29.68.42,1s.27.69.4,1l0,.05c.16.39.29.79.43,1.19s.27.74.39,1.11.25.75.38,1.12c.48,1.5.92,3,1.28,4.57.07.31.16.61.22.92a.1.1,0,0,1,0,.07s0,.05,0,.07c.09.4.17.79.25,1.19s.13.55.17.83.13.66.19,1c.12.6.22,1.2.31,1.8a52.29,52.29,0,0,1-14.16-4.1c-.12-.5-.28-1-.42-1.48s-.31-1-.48-1.5c-.34-1-.7-2.06-1.12-3.06-.13-.36-.28-.71-.43-1.06a.89.89,0,0,0-.08-.17c-.17-.43-.35-.85-.54-1.27a.65.65,0,0,0-.09-.16c-.16-.37-.33-.73-.51-1.09q-1.11-2.3-2.42-4.47c-.26-.44-.53-.88-.82-1.31s-.47-.75-.72-1.12-.4-.59-.62-.88l-.28-.39c-.19-.28-.4-.56-.59-.83a55.9,55.9,0,0,0-4-4.73c-.33-.37-.68-.73-1-1.08l-1-1c-.27-.27-.54-.53-.83-.79l-.74-.67c-.22-.21-.45-.42-.69-.62-.81-.7-1.63-1.38-2.47-2-.45-.35-.9-.69-1.36-1s-.73-.53-1.1-.78l-.69-.48c-.31-.22-.64-.43-1-.64l-.23-.15c-.37-.24-.77-.48-1.16-.71s-.6-.37-.91-.54-.6-.35-.92-.52c-.88-.49-1.77-.95-2.67-1.39-.6-.29-1.19-.57-1.79-.83s-1.21-.52-1.83-.77a56.15,56.15,0,0,0-13.66-3.56c-1.22-.15-2.43-.27-3.66-.34s-2.41-.12-3.62-.12C178.59,232.66,177.18,232.71,175.8,232.82Z"/><path class="cls-2" d="M325.66,225.81a69,69,0,0,1-.38,7.37c-.13,1.15-.27,2.29-.46,3.43a69.47,69.47,0,0,1-44.89,54.45c0-.67,0-1.34,0-2a53.25,53.25,0,0,1,1.55-12.78,56.38,56.38,0,0,0,29.15-35.34c.38-1.33.71-2.69,1-4.06a55.88,55.88,0,0,0,1.08-11.05c0-1.05,0-2.09-.08-3.12-.09-1.7-.25-3.39-.5-5a56.39,56.39,0,0,0-111.71.8,70.72,70.72,0,0,0-12.77-2.63,69.4,69.4,0,0,1,137.25-.74c.25,1.64.45,3.3.58,5C325.59,222,325.66,223.87,325.66,225.81Z"/><path class="cls-2" d="M401.52,278.34a52.42,52.42,0,0,1-14.16-4c-.17-.61-.33-1.22-.52-1.83-.42-1.36-.89-2.7-1.41-4-.13-.36-.28-.72-.42-1.07-.08-.18-.15-.36-.22-.53-.18-.41-.37-.81-.55-1.21s-.42-.92-.65-1.37-.44-.91-.68-1.36c-.47-.89-1-1.78-1.48-2.64-.19-.32-.38-.64-.59-1-.36-.59-.73-1.18-1.13-1.75-.2-.32-.41-.63-.64-.94s-.48-.69-.73-1l-.75-1q-1.38-1.78-2.89-3.45c-.24-.27-.49-.54-.74-.8s-.62-.66-.93-1-.48-.49-.73-.72l-.35-.34c-.31-.3-.61-.59-.92-.87-.74-.68-1.49-1.34-2.27-2l-1.17-.94c-.4-.32-.79-.62-1.21-.91s-.81-.6-1.23-.88-.74-.51-1.1-.76l-.35-.22c-.34-.24-.71-.47-1.07-.68l-1.29-.78c-1.3-.77-2.65-1.48-4-2.13-.71-.35-1.45-.69-2.19-1-.52-.23-1.08-.46-1.61-.67h0a55.73,55.73,0,0,0-13.67-3.45c-1.1-.14-2.21-.24-3.32-.3s-2.38-.12-3.58-.12c-1.35,0-2.72.05-4.06.15a71.42,71.42,0,0,0,.36-7.2c0-2-.08-3.92-.22-5.85,1.3-.07,2.6-.11,3.92-.11s2.35,0,3.49.09,2.19.13,3.27.24a68.66,68.66,0,0,1,12.89,2.49c1.11.33,2.23.69,3.32,1.08A69.47,69.47,0,0,1,401.52,278.34Z"/><path class="cls-2" d="M361.34,240.33c-1.3-.76-2.65-1.47-4-2.13C358.69,238.85,360,239.56,361.34,240.33Z"/><path class="cls-2" d="M401.77,298.05a69.41,69.41,0,0,1-137.63.12c-.15-1.12-.27-2.25-.35-3.38-.17-1.89-.24-3.81-.24-5.74a69.19,69.19,0,0,1,.38-7.38q.18-1.74.45-3.45a69.5,69.5,0,0,1,44.74-54.37c0,.65,0,1.3,0,2a53.58,53.58,0,0,1-1.57,12.88c-1.1.55-2.16,1.13-3.2,1.74l-.68.41c-.85.51-1.67,1-2.49,1.6l-1,.72c-.33.23-.64.47-1,.71l-.78.59c-.32.24-.62.49-.93.75s-.6.47-.89.72c-.74.62-1.46,1.27-2.17,1.93-.36.33-.71.67-1.05,1l-.7.7c-.61.62-1.21,1.26-1.78,1.9-.23.25-.45.5-.66.76a55.77,55.77,0,0,0-6.58,9.37c-.28.5-.56,1-.82,1.53s-.52,1-.77,1.55-.5,1.05-.73,1.58-.4.91-.57,1.37-.4.93-.57,1.41q-.2.48-.36,1c-.46,1.25-.87,2.53-1.23,3.83l0,.12c-.13.4-.23.81-.32,1.21s-.22.9-.33,1.35a.19.19,0,0,0,0,.08c-.1.45-.21.92-.3,1.38a55.91,55.91,0,0,0-1.09,11.06c0,1,0,2.08.08,3.11s.17,2.32.3,3.46a56.39,56.39,0,0,0,112,0A72.16,72.16,0,0,0,401.77,298.05Z"/><path class="cls-2" d="M361.34,240.33c-1.3-.76-2.65-1.47-4-2.13C358.69,238.85,360,239.56,361.34,240.33Z"/><path class="cls-2" d="M478.27,225.81a69.4,69.4,0,0,1-69.41,69.39c-.92,0-1.82,0-2.74-.06-1.34-.05-2.69-.14-4-.27a68.25,68.25,0,0,1-12.88-2.49c-1.11-.33-2.2-.68-3.29-1.06h0a69.41,69.41,0,0,1-45.65-54.81,52.12,52.12,0,0,1,14.15,4,56.36,56.36,0,0,0,30.11,36.15q1.84.9,3.75,1.65A56.09,56.09,0,0,0,402,281.77c1.4.17,2.82.29,4.24.35.89.05,1.77.07,2.66.07a56.39,56.39,0,1,0-55.75-64.74A72.49,72.49,0,0,0,340.3,215a69.41,69.41,0,0,1,138,10.8Z"/></g></g></g></svg>