<svg width="151" height="139" viewBox="0 0 151 139" fill="none" xmlns="http://www.w3.org/2000/svg">
<path opacity="0.34" d="M21.9768 135.507C34.1143 135.507 43.9537 133.582 43.9537 131.208C43.9537 128.834 34.1143 126.909 21.9768 126.909C9.83936 126.909 0 128.834 0 131.208C0 133.582 9.83936 135.507 21.9768 135.507Z" fill="#575FA8"/>
<path d="M24.3819 123.452L23.9309 130.787H37.0389C37.0389 130.787 31.6875 127.21 29.3124 126.067L29.0418 123.482H24.3819V123.452Z" fill="#F08789"/>
<path d="M28.4406 65.2476L29.3125 125.436H24.1414C24.1414 125.436 18.4293 101.866 21.2252 94.9809L16.2346 65.2476H28.4406Z" fill="#32388D"/>
<path opacity="0.2" d="M28.4406 65.2476H16.2646L21.2553 94.9809C20.2932 97.356 20.3233 101.745 20.8043 106.465L29.1922 116.717L28.4406 65.2476Z" fill="#020203"/>
<path d="M10.5525 124.414L8.53824 131.749H22.8487C22.8487 131.749 16.8059 128.172 14.4007 127.029L14.8517 124.444H10.5525V124.414Z" fill="#F08789"/>
<path d="M28.8015 64.4958L23.7206 94.6802L15.1524 125.436H10.0114C10.0114 125.436 11.6649 95.9128 16.9562 92.8463L12.7773 64.5259H28.8015V64.4958Z" fill="#32388D"/>
<path opacity="0.2" d="M28.4707 66.5703L28.8014 64.4958H12.7772L13.138 66.9611L28.5007 68.9153L28.4707 66.5703Z" fill="#020203"/>
<path d="M37.0691 43.6614C37.0691 43.6614 40.2558 38.5204 45.2164 37.3479L43.2623 39.6929C43.2623 39.6929 44.1942 42.1281 43.0217 43.3607C41.8492 44.5933 39.9552 44.6835 39.9552 44.6835L38.6324 46.1567L37.0691 43.6614Z" fill="#F5ABAE"/>
<path d="M24.4721 39.4524L28.8314 48.3514L37.3696 42.5791L39.5042 45.856C39.5042 45.856 32.0784 59.8058 28.8014 58.7836C25.5244 57.7614 22.6984 50.3957 22.6984 50.3957L24.4721 39.4524Z" fill="white"/>
<path opacity="0.2" d="M28.8014 48.3514L24.4421 39.4524L22.6984 50.3957C22.6984 50.3957 25.5244 57.7614 28.8014 58.7836C28.8916 58.8137 28.9517 58.8137 29.0419 58.8137L32.9803 45.4953L28.8014 48.3514Z" fill="#020203"/>
<path d="M27.7792 18.4378C27.7792 18.4378 28.2903 22.9775 28.8014 24.0898H27.3884C27.3884 24.0898 27.5086 28.4491 26.6067 28.9903C25.9754 29.3811 24.1415 28.9903 23.7206 29.5014C23.2997 30.0125 22.6683 33.6502 22.6683 33.6502L16.9862 33.1692L17.5574 28.0884C17.5574 28.0884 14.3706 24.2702 15.3327 19.5802C16.2947 14.8902 26.9374 14.0785 27.7792 18.4378Z" fill="#F5ABAE"/>
<path opacity="0.2" d="M20.6841 26.0139L16.2046 25.7734C16.866 27.1864 17.5875 28.0583 17.5875 28.0583L17.0163 33.1391L22.6984 33.6202C22.6984 33.6202 23.3297 29.9824 23.7506 29.4713C23.901 29.2909 24.2617 29.2007 24.6826 29.2007C22.488 28.5995 20.5037 26.1342 20.6841 26.0139Z" fill="#020203"/>
<path d="M27.9596 19.941C27.9596 19.941 26.7571 20.6625 24.352 19.0691C24.352 19.0691 22.7285 21.9853 21.3155 21.5945C21.3155 21.5945 21.2554 23.6689 20.9547 23.8192C20.6541 23.9695 20.0528 22.0454 19.4515 21.9252C18.8502 21.8049 18.2189 22.4062 18.8803 24.2101C19.5116 26.0139 20.6841 26.0139 20.6841 26.0139L17.5575 28.0883C17.5575 28.0883 15.0922 27.3067 14.6112 25.2623C14.6112 25.2623 11.4845 22.2258 13.3786 20.0612C13.3786 20.0612 11.3042 18.3175 16.1445 16.183C16.1445 16.183 17.2869 11.974 19.5417 13.8981C19.5417 13.8981 23.7206 10.7714 24.7428 13.5674C24.7428 13.5674 30.1243 13.1164 30.455 16.0326C30.7857 18.9488 29.4929 19.6403 29.4929 19.6403C29.4929 19.6403 29.7936 22.0454 28.2904 22.1657L27.9596 19.941Z" fill="#212226"/>
<path d="M13.0478 39.0617C13.0478 39.0617 10.2218 38.3703 10.7028 35.3639C11.1838 32.3274 15.1523 30.9745 23.2996 32.8685C24.2617 33.079 25.0133 34.6724 24.3819 36.0553C24.3819 36.0553 26.9975 42.489 27.8092 47.7503C28.621 53.0115 29.0419 58.5132 29.9438 61.0686C30.8156 63.6241 30.0941 66.4802 27.6589 66.4802C25.2538 66.4802 15.7535 66.4802 12.8073 66.4802C9.86099 66.4802 9.50022 62.3915 10.6727 58.1224C11.8152 53.8833 13.5288 42.1283 13.0478 39.0617Z" fill="#444496"/>
<path d="M19.662 37.4081C24.2919 38.4002 21.075 47.5998 20.143 50.2154C19.211 52.861 18.1888 55.206 19.662 57.2504C21.1351 59.2948 23.7206 61.5796 23.7206 61.5796L21.9769 65.2474C21.9769 65.2474 12.3264 64.0148 10.0114 61.1587C7.72655 58.3026 9.0193 51.9291 11.0035 47.5397C12.9878 43.1504 16.2046 36.6866 19.662 37.4081Z" fill="white"/>
<path d="M21.7064 65.8788C21.5861 65.8187 21.556 65.6984 21.5861 65.5782L23.9311 60.4673C23.9912 60.347 24.1115 60.317 24.2317 60.347C24.352 60.4072 24.3821 60.5274 24.352 60.6477L22.007 65.7586C21.9469 65.8788 21.8266 65.9089 21.7064 65.8788Z" fill="#A77071"/>
<path d="M19.5115 83.2863C19.5115 84.0379 18.9103 84.6692 18.1286 84.6692C17.377 84.6692 16.7456 84.0379 16.7456 83.2863C16.7456 82.5347 17.3469 81.9033 18.1286 81.9033C18.9103 81.9334 19.5115 82.5347 19.5115 83.2863Z" fill="#59BCAB"/>
<path d="M10.9132 82.9253C8.98908 82.9253 7.42575 81.362 7.42575 79.4379C7.42575 77.5138 8.98908 75.9504 10.9132 75.9504C12.8373 75.9504 14.4006 77.5138 14.4006 79.4379C14.4006 81.362 12.8373 82.9253 10.9132 82.9253ZM10.9132 77.7843C9.9812 77.7843 9.25966 78.5359 9.25966 79.4379C9.25966 80.3398 10.0113 81.0914 10.9132 81.0914C11.8452 81.0914 12.5667 80.3398 12.5667 79.4379C12.5667 78.5359 11.8452 77.7843 10.9132 77.7843Z" fill="#FCC450"/>
<path d="M111.177 14.71H110.034V15.8825C110.034 16.4237 109.614 16.8446 109.072 16.8446C108.531 16.8446 108.11 16.4237 108.11 15.8825V14.71H106.938C106.397 14.71 105.976 14.2891 105.976 13.748C105.976 13.2068 106.397 12.7859 106.938 12.7859H108.11V11.6134C108.11 11.0723 108.531 10.6514 109.072 10.6514C109.614 10.6514 110.034 11.0723 110.034 11.6134V12.7859H111.207C111.748 12.7859 112.169 13.2068 112.169 13.748C112.139 14.2891 111.718 14.71 111.177 14.71Z" fill="#59BCAB"/>
<path d="M120.617 8.6371C120.617 9.3887 120.016 10.02 119.234 10.02C118.482 10.02 117.851 9.41876 117.851 8.6371C117.851 7.8855 118.482 7.25415 119.234 7.25415C119.986 7.25415 120.617 7.85543 120.617 8.6371Z" fill="#345185"/>
<path d="M49.4554 39.5731C45.3065 29.1709 47.4411 16.8747 55.859 8.45676C59.9177 4.39811 64.8783 1.78254 70.1094 0.670166L73.206 14.7101C66.6821 16.1231 61.8117 21.9255 61.8117 28.8703C61.8117 30.7643 62.1725 32.5681 62.8339 34.2517L49.4554 39.5731Z" fill="#345185"/>
<path d="M55.859 49.2836C55.6486 49.0731 55.408 48.8326 55.1976 48.5921L65.69 38.7611C68.3356 41.5872 72.0936 43.3309 76.2725 43.3309C84.2696 43.3309 90.7634 36.837 90.7634 28.84C90.7634 23.1278 87.4864 18.1973 82.6762 15.8523L89.0497 2.95483C91.8156 4.30772 94.4011 6.14162 96.686 8.42649C107.96 19.7005 107.96 38.0095 96.686 49.2836C85.4421 60.5576 67.133 60.5576 55.859 49.2836Z" fill="white"/>
<path d="M76.3027 14.3792C75.2204 14.3792 74.1982 14.4994 73.2061 14.7099L70.1396 0.669965C76.453 -0.712982 83.1573 0.03862 89.0799 2.9849L82.7063 15.8824C80.7822 14.8903 78.5876 14.3792 76.3027 14.3792Z" fill="#59BCAB"/>
<path d="M55.1976 48.5923C52.6722 45.8865 50.7481 42.82 49.4554 39.573L62.8339 34.2517C63.4953 35.9353 64.4874 37.4686 65.72 38.7914L55.1976 48.5923Z" fill="#C1E4EE"/>
<path d="M142.113 22.4365V119.183C142.113 120.806 140.79 122.129 139.166 122.129H77.2946C75.6712 122.129 74.3484 120.806 74.3484 119.183V22.4365C74.3484 20.8131 75.6712 19.4602 77.2946 19.4602H139.136C140.79 19.4602 142.113 20.783 142.113 22.4365Z" fill="#4FBECB"/>
<path d="M67.5237 124.895H148.937C149.689 124.895 150.32 124.294 150.32 123.512C150.32 122.76 149.719 122.129 148.937 122.129H67.5237C66.7721 122.129 66.1408 122.73 66.1408 123.512C66.1408 124.294 66.7721 124.895 67.5237 124.895Z" fill="#E2E2E1"/>
<path d="M142.113 22.4065V29.6219H74.3484V22.4065C74.3484 20.7831 75.6712 19.4302 77.2946 19.4302H139.136C140.79 19.4602 142.113 20.7831 142.113 22.4065Z" fill="#4FBECB"/>
<path d="M108.231 119.574C106.697 119.574 105.465 118.341 105.465 116.808C105.465 115.274 106.697 114.042 108.231 114.042C109.764 114.042 110.996 115.274 110.996 116.808C111.027 118.341 109.764 119.574 108.231 119.574Z" fill="#E6F2EA"/>
<path d="M82.165 25.5932C81.5336 25.5932 81.0225 25.0821 81.0225 24.4508C81.0225 23.8194 81.5336 23.3083 82.165 23.3083C82.7963 23.3083 83.3074 23.8194 83.3074 24.4508C83.2773 25.0821 82.7662 25.5932 82.165 25.5932Z" fill="#E6F2EA"/>
<path d="M85.7426 25.5932C85.1113 25.5932 84.6002 25.0821 84.6002 24.4508C84.6002 23.8194 85.1113 23.3083 85.7426 23.3083C86.3739 23.3083 86.885 23.8194 86.885 24.4508C86.885 25.0821 86.3739 25.5932 85.7426 25.5932Z" fill="#E6F2EA"/>
<path d="M141.061 29.6218H75.4006V111.065H141.061V29.6218Z" fill="#D2EBF7"/>
<path d="M87.1531 56.9199V47.2693L65.4168 47.2693V56.9199H87.1531Z" fill="#A9DAE5"/>
<path d="M100.418 81.4775V71.8269H78.6812V81.4775H100.418Z" fill="#A9DAE5"/>
<path d="M93.8005 69.214V59.5635L72.0642 59.5635V69.214H93.8005Z" fill="#A9DAE5"/>
<path d="M137.303 33.0491H78.6776V44.0225H137.303V33.0491Z" fill="#EDF6F4"/>
<path d="M135.529 34.6125H127.742V42.3991H135.529V34.6125Z" fill="#D2E8F2"/>
<path d="M99.3316 35.0935H82.4656V36.5967H99.3316V35.0935Z" fill="#ACD8C8"/>
<path d="M99.3316 37.769H82.4656V39.2722H99.3316V37.769Z" fill="#ACD8C8"/>
<path d="M93.8298 40.4448H82.4656V41.948H93.8298V40.4448Z" fill="#ACD8C8"/>
<path opacity="0.5" d="M148.366 79.9189H100.414V102.437H148.366V79.9189Z" fill="#96CEB8"/>
<path d="M124.014 87.7056H105.194V89.5996H124.014V87.7056Z" fill="#E6F2EA"/>
<path d="M119.535 91.0725H105.194V92.9665H119.535V91.0725Z" fill="#E6F2EA"/>
<path d="M114.875 94.47H105.194V96.364H114.875V94.47Z" fill="#E6F2EA"/>
<path d="M121.849 94.47H116.077V96.364H121.849V94.47Z" fill="#E6F2EA"/>
<path d="M118.272 97.8372H105.194V99.7312H118.272V97.8372Z" fill="#E6F2EA"/>
<path d="M95.9945 85.0901H78.6776V102.407H95.9945V85.0901Z" fill="#9FD2BA"/>
<path d="M91.1656 97.6324C93.2789 95.5191 93.2789 92.0927 91.1656 89.9794C89.0523 87.8661 85.6259 87.8661 83.5126 89.9794C81.3993 92.0927 81.3993 95.5191 83.5126 97.6324C85.6259 99.7457 89.0523 99.7457 91.1656 97.6324Z" fill="#7CC39E"/>
<path d="M91.4549 93.8085C91.4549 95.1614 90.7935 96.3639 89.7713 97.1155C89.4707 97.326 89.14 97.5364 88.7792 97.6567C88.6289 97.7168 88.4485 97.7769 88.2982 97.807C88.208 97.8371 88.0878 97.8371 87.9976 97.8671C87.7871 97.8972 87.5767 97.9273 87.3662 97.9273C86.9453 97.9273 86.5244 97.8671 86.1336 97.7469C84.45 97.2358 83.2474 95.6725 83.2474 93.8085C83.2474 93.1771 83.3978 92.5458 83.6683 92.0046C83.999 91.3432 84.4801 90.772 85.0813 90.3812C85.2317 90.291 85.382 90.2008 85.5323 90.1106C85.863 89.9302 86.2238 89.81 86.6146 89.7498C86.8551 89.6897 87.1257 89.6897 87.3662 89.6897C89.1099 89.6897 90.6131 90.772 91.1844 92.3053C91.3347 92.7863 91.4549 93.2673 91.4549 93.8085Z" fill="#EFF4F4"/>
<path d="M87.3361 94.2896C87.0656 94.2896 86.8551 94.0791 86.8551 93.8085V91.1629C86.8551 90.8923 87.0656 90.6819 87.3361 90.6819C87.6067 90.6819 87.8172 90.8923 87.8172 91.1629V93.8085C87.8172 94.0791 87.6067 94.2896 87.3361 94.2896Z" fill="#C1D6CF"/>
<path d="M87.3361 94.2896C87.1858 94.2896 87.0355 94.1994 86.9453 94.0791C86.795 93.8687 86.8852 93.568 87.0956 93.4177L88.4485 92.5458C88.659 92.3955 88.9596 92.4857 89.1099 92.6962C89.2602 92.9066 89.17 93.2073 88.9596 93.3576L87.6067 94.2294C87.5165 94.2595 87.4263 94.2896 87.3361 94.2896Z" fill="#C1D6CF"/>
<path d="M137.302 47.2693H103.09V81.4822H137.302V47.2693Z" fill="#98D5E9"/>
<path d="M120.196 65.9091C117.791 65.9091 115.837 63.9549 115.837 61.5498V58.9342C115.837 56.5291 117.791 54.575 120.196 54.575C122.601 54.575 124.555 56.5291 124.555 58.9342V61.5498C124.555 63.9549 122.601 65.9091 120.196 65.9091Z" fill="#F8FCFA"/>
<path d="M120.196 63.6843C116.077 63.6843 112.56 66.0895 110.906 69.5769C109.944 71.6212 111.417 73.9662 113.672 73.9662H126.75C129.005 73.9662 130.478 71.6212 129.516 69.5769C127.862 66.0895 124.315 63.6843 120.196 63.6843Z" fill="#F8FCFA"/>
<path d="M137.296 106.361V103.565L78.6711 103.565V106.361L137.296 106.361Z" fill="#FFE1AB"/>
<path d="M141.692 46.1571V35.9653C142.413 35.9653 143.015 36.5666 143.015 37.2882V44.8643C143.015 45.5858 142.413 46.1571 141.692 46.1571Z" fill="#4FBECB"/>
<path d="M141.692 57.5513V47.3596C142.413 47.3596 143.015 47.9609 143.015 48.6824V56.2586C143.015 56.9501 142.413 57.5513 141.692 57.5513Z" fill="#4FBECB"/>
<path opacity="0.3" d="M113.492 29.6218L75.4005 67.713V47.2394L93.0181 29.6218H113.492Z" fill="#F6FBFD"/>
<path opacity="0.3" d="M127.742 29.6218L75.4005 81.9634V71.7416L117.52 29.6218H127.742Z" fill="#F6FBFD"/>
<path opacity="0.3" d="M88.9895 88.2468V97.0255C88.9895 97.3862 88.749 97.7169 88.4183 97.8071V122.099H77.3247C75.7012 122.099 74.3784 120.776 74.3784 119.153V70.3586H86.3739C87.5164 70.3586 88.4183 71.2906 88.4183 72.403V87.4651C88.749 87.5854 88.9895 87.886 88.9895 88.2468Z" fill="#385F82"/>
<path d="M80.5416 66.3V133.463C80.5416 134.606 79.6097 135.507 78.4973 135.507H43.2321C42.1198 135.507 41.1878 134.606 41.1878 133.463V66.3C41.1878 65.1575 42.1198 64.2556 43.2321 64.2556H78.4672C79.6097 64.2556 80.5416 65.1575 80.5416 66.3Z" fill="#5BB98E"/>
<path d="M80.5416 66.3V71.3207H41.1878V66.3C41.1878 65.1575 42.1198 64.2556 43.2321 64.2556H78.4973C79.6097 64.2556 80.5416 65.1876 80.5416 66.3Z" fill="#5BB98E"/>
<path d="M60.8497 133.764C59.7974 133.764 58.9256 132.892 58.9256 131.84C58.9256 130.787 59.7974 129.916 60.8497 129.916C61.9019 129.916 62.7738 130.787 62.7738 131.84C62.7738 132.892 61.932 133.764 60.8497 133.764Z" fill="#E6F2EA"/>
<path d="M53.7244 68.4945C53.3035 68.4945 52.9428 68.1337 52.9428 67.7128C52.9428 67.2919 53.3035 66.9312 53.7244 66.9312C54.1453 66.9312 54.5061 67.2919 54.5061 67.7128C54.5061 68.1638 54.1754 68.4945 53.7244 68.4945Z" fill="#E6F2EA"/>
<path d="M64.818 68.0136H57.0314C56.8811 68.0136 56.7308 67.8934 56.7308 67.713C56.7308 67.5326 56.8511 67.4124 57.0314 67.4124H64.818C64.9684 67.4124 65.1187 67.5326 65.1187 67.713C65.1187 67.8934 64.9684 68.0136 64.818 68.0136Z" fill="#E6F2EA"/>
<path d="M79.7901 71.3208H41.9093V127.871H79.7901V71.3208Z" fill="#D2EBF7"/>
<path d="M51.8304 101.385H44.9458V103.549H51.8304V101.385Z" fill="#EDF6F4"/>
<path d="M69.3579 101.385H62.4732V103.549H69.3579V101.385Z" fill="#EDF6F4"/>
<path d="M60.5791 101.385H53.6944V103.549H60.5791V101.385Z" fill="#EDF6F4"/>
<path d="M76.8137 105.323H49.0947V112.929H76.8137V105.323Z" fill="#EDF6F4"/>
<path d="M75.5811 106.405H70.1695V111.817H75.5811V106.405Z" fill="#D5EAE4"/>
<path d="M59.3765 106.736H47.6515V107.788H59.3765V106.736Z" fill="#ACD8C8"/>
<path d="M59.3765 108.6H47.6515V109.652H59.3765V108.6Z" fill="#ACD8C8"/>
<path d="M55.5283 110.464H47.6515V111.516H55.5283V110.464Z" fill="#ACD8C8"/>
<path d="M65.269 114.823H45.0058V124.323H65.269V114.823Z" fill="#EDF6F4"/>
<path d="M57.9936 116.266H47.6515V117.318H57.9936V116.266Z" fill="#FFE1AB"/>
<path d="M55.5283 118.1H47.6515V119.152H55.5283V118.1Z" fill="#FFE1AB"/>
<path d="M52.9729 119.964H47.6515V121.016H52.9729V119.964Z" fill="#FFE1AB"/>
<path d="M56.7909 119.964H53.6341V121.016H56.7909V119.964Z" fill="#ACD8C8"/>
<path d="M54.8368 121.828H47.6515V122.88H54.8368V121.828Z" fill="#FFE1AB"/>
<path opacity="0.5" d="M69.3878 74.8381H39.5643V99.16H69.3878V74.8381Z" fill="#FFE1AB"/>
<path d="M57.2119 94.7103C61.4293 94.7103 64.8482 91.2914 64.8482 87.074C64.8482 82.8566 61.4293 79.4377 57.2119 79.4377C52.9945 79.4377 49.5757 82.8566 49.5757 87.074C49.5757 91.2914 52.9945 94.7103 57.2119 94.7103Z" fill="#FCC450"/>
<path d="M62.9841 87.0739C62.9841 88.998 62.0522 90.6816 60.6391 91.7338C60.2183 92.0345 59.7372 92.305 59.2261 92.4854C59.0157 92.5756 58.7752 92.6357 58.5347 92.6959C58.3843 92.7259 58.234 92.756 58.1138 92.7861C57.8131 92.8462 57.5125 92.8462 57.2118 92.8462C56.6106 92.8462 56.0393 92.756 55.4982 92.5756C53.1532 91.8541 51.4395 89.6293 51.4395 87.0438C51.4395 86.1419 51.65 85.3001 52.0108 84.5184C52.4617 83.5865 53.1532 82.7747 54.0251 82.2035C54.2355 82.0532 54.446 81.9329 54.6564 81.8427C55.1374 81.6022 55.6485 81.4218 56.1596 81.3317C56.5204 81.2715 56.8511 81.2415 57.2118 81.2415C59.6771 81.2415 61.7816 82.7747 62.5933 84.9393C62.8639 85.6308 62.9841 86.3524 62.9841 87.0739Z" fill="#EFF4F4"/>
<path d="M57.2119 87.7653C56.8511 87.7653 56.5504 87.4647 56.5504 87.1039V83.406C56.5504 83.0453 56.8511 82.7446 57.2119 82.7446C57.5726 82.7446 57.8733 83.0453 57.8733 83.406V87.1039C57.8733 87.4647 57.5726 87.7653 57.2119 87.7653Z" fill="#C1D6CF"/>
<path d="M57.2118 87.7655C57.0014 87.7655 56.7609 87.6452 56.6406 87.4648C56.4302 87.1642 56.5504 86.7433 56.8511 86.5328L58.7752 85.3303C59.0758 85.1198 59.4967 85.2401 59.7072 85.5407C59.9176 85.8414 59.7974 86.2623 59.4967 86.4727L57.5726 87.6753C57.4524 87.7354 57.3321 87.7655 57.2118 87.7655Z" fill="#C1D6CF"/>
<path opacity="0.3" d="M68.3657 71.3206L41.9093 97.7469V83.5566L54.1454 71.3206H68.3657Z" fill="#F6FBFD"/>
<path opacity="0.3" d="M78.2568 71.3206L41.9093 107.668V100.543L71.1316 71.3206H78.2568Z" fill="#F6FBFD"/>
<g opacity="0.7">
<path opacity="0.7" d="M81.9847 114.823H67.3134V129.494H81.9847V114.823Z" fill="#9FD2BA"/>
<path opacity="0.7" d="M74.619 122.82C73.5968 122.82 72.755 121.978 72.755 120.956V119.844C72.755 118.822 73.5968 117.98 74.619 117.98C75.6412 117.98 76.483 118.822 76.483 119.844V120.956C76.513 121.978 75.6712 122.82 74.619 122.82Z" fill="#F8FCFA"/>
<path opacity="0.7" d="M74.619 121.858C72.8452 121.858 71.342 122.88 70.6205 124.384C70.1996 125.255 70.8309 126.278 71.793 126.278H77.3849C78.3469 126.278 78.9783 125.255 78.5574 124.384C77.926 122.88 76.3928 121.858 74.619 121.858Z" fill="#F8FCFA"/>
</g>
<path d="M76.4228 74.8381H72.0635V103.549H76.4228V74.8381Z" fill="#9FD2BA"/>
<path d="M80.241 91.7941V81.3018C80.7221 81.3018 81.1129 81.6926 81.1129 82.1736V90.9523C81.1129 91.4033 80.7221 91.7941 80.241 91.7941Z" fill="#5BB98E"/>
<path opacity="0.3" d="M53.9048 64.2556L50.2971 74.8382L41.9994 99.16L41.1877 101.565V99.16H39.5943V74.8382H41.1877V66.3C41.1877 65.1575 42.1197 64.2556 43.2321 64.2556H53.9048Z" fill="#385F82"/>
<path d="M21.5559 138.273H86.0734C86.825 138.273 87.4563 137.672 87.4563 136.891C87.4563 136.139 86.855 135.508 86.0734 135.508H21.5559C20.8043 135.508 20.1729 136.109 20.1729 136.891C20.203 137.672 20.8043 138.273 21.5559 138.273Z" fill="#E2E2E1"/>
</svg>
