<?xml version="1.0" ?><svg viewBox="0 0 64 64" xmlns="http://www.w3.org/2000/svg"><defs><style>.cls-1{fill:#ffeb71;}.cls-2{fill:#cd5257;}.cls-3{fill:#c1272d;}.cls-4{fill:#79b3cc;}.cls-5{fill:#1f80aa;}.cls-6{fill:#868686;}.cls-7{fill:#b3b3b3;}.cls-8{fill:none;stroke:#000;stroke-linejoin:round;stroke-width:2px;}</style></defs><title/><g data-name="Layer 22" id="Layer_22"><polyline class="cls-1" points="24 15 19 10 26 10 23 4 30 7 32 2 35 7 40 4 38 10 45 10 40 15"/><path class="cls-2" d="M28,30V26a8,8,0,0,0-8-8H10a8,8,0,0,0-8,8v9.51A20.49,20.49,0,0,0,8,50H8v2H24V50l5.49-4.8A7.39,7.39,0,0,0,32,39.66V34a4,4,0,0,0-4-4h0a4,4,0,0,0-4,4v2"/><path class="cls-3" d="M2,26H28a8,8,0,0,0-8-8H10A8,8,0,0,0,2,26Z"/><path class="cls-4" d="M36,30V26a8,8,0,0,1,8-8H54a8,8,0,0,1,8,8v9.51A20.49,20.49,0,0,1,56,50h0v2H40V50l-5.49-4.8A7.39,7.39,0,0,1,32,39.66V34a4,4,0,0,1,4-4h0a4,4,0,0,1,4,4v2"/><path class="cls-5" d="M62,26H36a8,8,0,0,1,8-8H54A8,8,0,0,1,62,26Z"/><rect class="cls-5" height="10" transform="translate(96 114) rotate(-180)" width="20" x="38" y="52"/><rect class="cls-4" height="10" width="17" x="38" y="52"/><rect class="cls-3" height="10" transform="translate(32 114) rotate(-180)" width="20" x="6" y="52"/><rect class="cls-2" height="10" width="17" x="6" y="52"/><rect class="cls-6" height="6" width="6" x="20" y="56"/><rect class="cls-7" height="6" width="3" x="20" y="56"/><rect class="cls-6" height="6" width="6" x="38" y="56"/><rect class="cls-7" height="6" width="3" x="38" y="56"/><rect class="cls-8" height="10" transform="translate(32 114) rotate(-180)" width="20" x="6" y="52"/><path class="cls-8" d="M40,52V50l-5.49-4.8A7.39,7.39,0,0,1,32,39.66V34a4,4,0,0,1,4-4h0a4,4,0,0,1,4,4v2"/><path class="cls-8" d="M36,30V26a8,8,0,0,1,8-8H54a8,8,0,0,1,8,8v9.51A20.49,20.49,0,0,1,56,50h0v2"/><rect class="cls-8" height="10" width="20" x="38" y="52"/><line class="cls-8" x1="36" x2="62" y1="26" y2="26"/><polyline class="cls-8" points="38 56 44 56 44 62"/><path class="cls-8" d="M24,52V50l5.49-4.8A7.39,7.39,0,0,0,32,39.66V34a4,4,0,0,0-4-4h0a4,4,0,0,0-4,4v2"/><path class="cls-8" d="M28,30V26a8,8,0,0,0-8-8H10a8,8,0,0,0-8,8v9.51A20.49,20.49,0,0,0,8,50H8v2"/><line class="cls-8" x1="28" x2="2" y1="26" y2="26"/><polyline class="cls-8" points="26 56 20 56 20 62"/><polyline class="cls-8" points="24 15 19 10 26 10 23 4 30 7 32 2 35 7 40 4 38 10 45 10 40 15"/></g></svg>